<svg width="943" height="863" viewBox="0 0 943 863" fill="none" xmlns="http://www.w3.org/2000/svg">
<path fill-rule="evenodd" clip-rule="evenodd" d="M237.528 0C239.229 0 243.129 1.5 246.529 3.5C249.83 5.5 252.63 7.1 252.83 7C252.93 7 266.832 14.5 283.734 23.6C300.736 32.8 317.438 41.8 321.038 43.8C324.639 45.7 329.239 48.2 331.34 49.2C333.34 50.2 335.14 51.1 335.24 51.2C335.34 51.4 335.74 67.2 336.54 121.2L342.541 124.4C345.841 126.2 356.443 131.8 366.044 136.9C375.645 142.1 385.246 147.4 387.346 148.6C389.346 149.9 391.247 151 391.547 151C391.847 151 398.348 154.4 406.048 158.5C413.749 162.6 420.45 166.9 421.05 168C421.75 169.3 422.05 217.7 422.05 307.3C422.05 393.4 422.35 446.5 423.05 450C423.551 453 425.551 459 427.551 463.2C430.051 468.8 432.752 472.8 437.352 477.4C441.853 482 445.653 484.7 451.554 487.5C456.154 489.7 462.755 491.9 467.056 492.6C471.156 493.3 474.857 494.5 475.257 495.2C475.657 495.9 476.057 500.4 476.057 505.3C476.057 511.7 475.657 514.4 474.557 515.5C473.456 516.6 471.856 516.8 468.356 516.4C465.656 516.1 460.655 515.1 457.055 514.3C453.454 513.5 447.453 511.5 443.553 509.8C439.652 508.1 434.952 505.6 433.052 504.1C431.151 502.7 427.151 499.5 424.251 497C421.35 494.5 418.85 492.7 418.65 493C418.45 493.3 417.85 497.1 417.25 501.5C416.75 505.9 415.95 511.1 415.65 513C415.25 514.9 414.249 520.1 413.449 524.5C412.649 528.9 410.349 538.2 408.449 545.3C406.549 552.3 405.048 558.7 405.048 559.5C405.048 560.4 409.049 562.9 415.35 565.9C420.95 568.6 428.351 571.8 431.852 572.9C435.252 574.1 441.053 575.6 444.853 576.4C448.554 577.2 456.754 578.4 463.055 579C469.456 579.7 474.857 580.7 475.257 581.3C475.657 582 476.057 586.5 476.057 591.5C476.157 598.7 475.857 600.8 474.457 602C473.056 603.2 471.056 603.4 463.155 602.8C457.855 602.4 449.954 601.4 445.553 600.6C441.153 599.7 432.352 597.4 426.051 595.4C419.75 593.4 410.849 590 406.348 587.9C401.748 585.8 397.747 584 397.347 584C396.847 584 395.947 585.7 395.147 587.7C394.447 589.8 392.247 595.3 390.347 600C388.446 604.7 385.846 610.8 384.546 613.5C383.346 616.3 380.845 621.6 379.145 625.5C377.345 629.4 374.745 634.2 373.245 636.3C371.744 638.3 370.744 640.2 371.044 640.4C371.344 640.6 374.645 642.3 378.545 644.3C382.446 646.2 389.646 649.4 394.547 651.4C399.448 653.3 408.449 656.2 414.549 657.9C420.65 659.5 429.651 661.5 434.552 662.4C439.452 663.2 447.353 664.2 452.054 664.6C456.754 664.9 461.955 665.4 463.555 665.5C465.155 665.7 468.056 665.9 469.856 665.9C471.556 666 473.757 666.7 474.557 667.5C475.657 668.6 476.057 671.3 476.057 677.5C476.057 682.2 475.857 686.7 475.557 687.5C475.157 688.7 473.056 689 465.356 689C459.955 689 451.754 688.5 447.053 688C442.353 687.5 433.852 686.1 428.051 685C422.25 683.9 414.449 682 410.549 680.9C406.649 679.8 400.648 677.9 397.047 676.8C393.447 675.7 385.846 672.8 380.045 670.5C374.245 668.2 367.344 665.2 359.543 661.3L351.142 673.9C346.541 680.8 340.841 689 338.44 692C336.04 695 331.64 700.6 328.639 704.5C325.539 708.4 323.039 711.8 323.039 712.2C323.039 712.7 328.739 715.9 335.84 719.4C342.841 722.9 352.342 727.3 357.043 729.3C361.743 731.2 368.944 733.9 373.045 735.3C377.145 736.7 384.346 739 389.046 740.4C393.747 741.7 402.048 743.8 407.549 745C413.049 746.1 420.95 747.7 425.051 748.5C429.151 749.3 438.852 750.4 446.553 751C454.254 751.5 463.355 752 466.856 752C471.056 752 473.557 752.5 474.557 753.5C475.657 754.6 476.057 757.3 476.057 764C476.057 770.7 475.657 773.4 474.557 774.5C473.356 775.7 470.856 775.9 460.855 775.4C454.054 775.1 444.053 774.4 438.552 773.9C433.052 773.4 427.851 772.7 427.051 772.5C426.251 772.3 420.15 771.2 413.549 770C406.949 768.9 397.247 766.8 392.047 765.4C386.846 764 378.245 761.5 373.045 759.9C367.844 758.2 358.143 754.8 351.542 752.3C344.941 749.7 332.14 743.9 323.039 739.3C313.937 734.7 306.237 731.1 305.836 731.2C305.436 731.4 300.536 736 294.835 741.6C289.134 747.1 279.633 755.9 273.533 761.1C267.432 766.3 261.431 771.3 257.531 774L260.031 775.7C261.431 776.7 263.431 778 264.532 778.6C265.632 779.2 270.632 782.1 275.533 785C280.433 787.9 290.635 793.3 298.036 797C305.436 800.7 316.938 806 323.539 808.8C330.139 811.5 343.141 816.3 352.542 819.3C361.943 822.3 375.645 826.2 383.046 827.9C390.447 829.6 403.048 832.1 411.049 833.5C419.05 834.8 431.652 836.4 439.052 837C446.453 837.5 457.155 838 462.855 838C470.556 838 473.456 838.4 474.557 839.5C475.657 840.6 476.057 843.3 476.057 849.5C476.057 854.3 475.557 859.1 474.857 860.6C473.757 862.8 473.056 863.1 470.056 862.6C468.156 862.3 460.655 861.8 453.554 861.5C446.453 861.2 437.652 860.7 434.052 860.4C430.451 860.1 423.751 859.1 419.05 858.3C414.349 857.5 407.649 856.5 404.048 856C400.448 855.6 390.547 853.6 382.046 851.6C373.545 849.6 362.443 846.9 357.543 845.5C352.642 844.1 347.842 842.7 347.041 842.3C346.241 842 345.341 841.6 345.041 841.5C344.741 841.4 343.841 841 343.041 840.7C342.241 840.4 338.84 839.4 335.54 838.4C332.24 837.5 328.639 836.3 327.539 835.6C326.439 834.9 323.539 833.8 321.038 833.1C318.538 832.3 308.937 828.2 299.536 823.9C290.135 819.5 275.333 811.8 266.532 806.8C257.731 801.8 247.73 795.7 244.329 793.3C240.829 790.9 237.828 789 237.528 789C237.228 789 233.728 791.2 229.827 793.8C225.827 796.5 217.126 801.9 210.525 805.8C203.924 809.7 191.523 816.2 183.022 820.3C174.521 824.3 165.32 828.6 162.519 829.8C159.819 831 154.118 833.2 150.018 834.8C145.917 836.4 140.317 838.3 137.516 839C134.816 839.7 131.916 840.8 131.216 841.4C130.416 842.1 129.916 842.1 130.016 841.5C130.116 840.9 129.515 841 128.815 841.6C128.115 842.3 123.015 844 117.514 845.5C112.013 847 104.112 849 100.012 850C95.9114 851 91.2109 852.1 89.5107 852.4C87.9105 852.7 84.5101 853.4 82.0098 854C79.5095 854.6 74.6089 855.5 71.0085 856C67.408 856.5 61.8074 857.4 58.507 858C55.2066 858.6 48.9058 859.5 44.5053 860C40.1048 860.5 29.3035 861.2 20.5024 861.6C11.7014 861.9 4.2005 862.4 3.80045 862.6C3.30039 862.8 2.30027 862.3 1.50018 861.5C0.400048 860.4 0 857.5 0 849.5C0 841.1 0.300036 838.9 1.50018 838.5C2.30027 838.2 7.40088 838 12.8015 838C18.1022 838 28.6034 837.5 36.0043 837C43.4052 836.4 57.4068 834.5 67.008 832.9C76.6091 831.2 89.0106 828.7 94.5113 827.4C100.012 826 108.313 823.8 113.013 822.4C117.714 821 125.615 818.4 130.516 816.7C135.416 815.1 146.317 810.9 154.518 807.4C162.819 804 174.721 798.5 181.022 795.2C187.322 791.9 197.224 786.4 203.024 783C208.825 779.5 214.326 776.2 215.226 775.6C216.926 774.6 216.926 774.4 215.226 772.8C214.326 771.8 208.825 767.1 203.024 762.2C197.224 757.3 187.222 748.3 169.02 731L151.818 739.5C142.317 744.1 129.615 749.9 123.515 752.3C117.414 754.8 109.113 757.8 105.013 759C100.912 760.2 93.0111 762.5 87.5104 764.1C82.0098 765.8 73.0087 767.9 67.5081 768.9C62.0074 769.9 53.5064 771.5 48.5058 772.3C43.6052 773.2 35.7043 774.1 31.0037 774.4C26.3031 774.7 18.2022 775.2 13.0016 775.5C7.80093 775.8 2.70032 775.8 1.80021 775.5C0.200024 775.1 0 773.6 0 764C0 753.4 0.100012 753 2.30027 752.6C3.50042 752.4 13.1016 751.7 23.5028 751C34.0041 750.4 45.7055 749.3 49.5059 748.6C53.4064 747.9 61.2073 746.3 67.008 745.1C72.8087 743.9 81.3097 741.7 86.0103 740.4C90.7108 739 97.9117 736.7 102.012 735.3C106.113 733.9 113.614 731.1 118.514 729C123.415 727 133.216 722.4 153.018 712.5L148.718 707.5C146.317 704.7 143.317 700.9 142.017 699C140.717 697.1 139.317 695.3 139.017 695C138.717 694.7 136.616 692 134.316 689C132.016 686 130.016 682.9 130.016 682.2C130.016 681.6 129.515 680.9 129.015 680.7C128.415 680.6 125.215 676.1 115.514 660.9L109.513 664C106.213 665.8 98.6118 669.1 92.511 671.5C86.5103 673.9 77.0092 677.2 71.5085 678.9C66.0079 680.6 56.0067 683.1 49.3059 684.5C42.5051 685.9 33.1039 687.4 28.3034 688C23.4028 688.5 15.1018 689 0 689L0.50006 665.9L9.50113 665.5C14.5017 665.3 21.4026 664.8 25.003 664.5C28.6034 664.1 35.6042 663.2 40.5048 662.3C45.5054 661.5 54.5065 659.5 60.5072 657.9C66.6079 656.2 75.609 653.3 80.5096 651.3C85.5102 649.3 92.511 646.2 96.3115 644.4C100.112 642.5 103.012 640.4 103.012 639.5C103.012 638.7 101.912 636.3 100.512 634.2C99.2118 632.2 95.3114 624.4 92.011 617C88.6106 609.6 84.3101 599.6 82.4098 594.7C80.5096 589.9 79.0094 585.5 79.0094 585C79.0094 584.5 78.6094 584 78.0093 584C77.5092 584 73.7088 585.6 69.8083 587.5C65.8079 589.4 56.9068 592.8 50.006 595C43.1051 597.2 33.704 599.8 29.0035 600.6C24.3029 601.5 15.9019 602.4 0 603.5V580L7.80093 579.4C12.0014 579.1 19.8024 578.2 25.003 577.3C30.2036 576.5 38.6046 574.4 43.5052 572.8C48.5058 571.1 56.4067 567.8 61.3073 565.4C66.1079 563 70.2084 560.5 70.5084 560C70.8084 559.5 70.6084 558.4 70.1084 557.7C69.6083 557.1 68.2081 552.5 67.008 547.5C65.7078 542.5 64.7077 537.8 64.7077 537C64.7077 536.2 64.4077 535.3 64.1076 535C63.7076 534.7 62.7075 530.5 61.7074 525.5C60.8073 520.5 60.0072 515 60.0072 513.2C60.0072 511.5 59.6071 509.8 59.007 509.5C58.507 509.2 57.7069 505.7 57.4069 501.7C57.0068 497.8 56.6068 494.2 56.4067 493.7C56.2067 493.3 53.6064 494.9 50.8061 497.3C47.9057 499.7 43.5052 503 41.0049 504.7C38.5046 506.4 33.704 508.9 30.3036 510.4C26.8032 511.8 21.2025 513.6 17.8021 514.4C14.3017 515.2 8.90106 516.1 0 517V505.5C0 499.2 0.100012 494 0.300036 494C0.400048 493.9 4.10049 493.3 8.50101 492.5C13.3016 491.6 19.5023 489.5 24.0029 487.3C28.6034 485 33.604 481.5 37.1044 478C40.1048 475 44.3053 469.6 46.3055 466C48.8058 461.6 50.506 456.9 51.5061 451.5C52.7063 445 52.9063 430.3 53.0063 370.7C53.0063 299.4 53.0063 298 55.0066 296C56.1067 294.9 57.7069 294 58.507 294C59.3071 294 60.1072 293.6 60.3072 293.1C60.4072 292.7 64.3077 290.2 69.0082 287.8C73.7088 285.3 82.0098 280.9 87.5104 278C93.0111 275 100.212 271.1 103.512 269.3C106.813 267.5 112.213 264.6 115.514 262.9C118.814 261.2 125.315 257.7 138.517 250.5L139.017 152C139.317 97.8 139.817 53 140.117 52.5C140.517 52 144.317 49.4 148.618 46.9C153.018 44.3 161.719 39.6 168.02 36.3C174.321 33 189.223 25 201.024 18.5C212.825 12 223.427 6.3 224.527 5.8C225.627 5.3 228.327 3.8 230.528 2.5C232.728 1.1 235.928 0 237.528 0V0ZM250.23 154.4C250.93 153.8 255.631 151.1 260.531 148.4C265.432 145.8 272.633 141.9 276.533 139.8C280.433 137.8 284.634 135.5 286.034 134.7C287.434 133.9 293.735 130.6 300.036 127.2L311.537 121.1L312.037 65.5C264.632 39.9 250.53 32.3 250.13 32.2C249.63 32 249.23 59.7 249.13 93.7C248.93 144.2 249.13 155.3 250.23 154.4V154.4ZM336.24 456C336.64 457.9 337.74 463.8 338.64 469C339.541 474.4 342.241 483.5 344.741 490C347.241 496.3 350.442 503.5 351.842 506C353.242 508.5 356.143 513.1 358.243 516.2C360.343 519.4 362.043 522.2 362.043 522.5C362.043 522.8 363.243 524.5 364.844 526.2C366.344 528 371.144 533.2 375.545 537.8C379.945 542.3 383.746 546 384.046 546C384.346 546 385.146 543.4 385.846 540.3C386.646 537.1 388.046 530.9 389.146 526.5C390.147 522.1 392.147 511.3 393.547 502.5C395.047 493.7 396.347 483.1 396.647 479C396.947 474.9 397.447 466.1 397.847 459.5C398.248 452.9 398.448 387.5 398.348 314.2L398.047 181C393.047 178.5 391.347 177.4 391.047 177.1C390.747 176.8 387.646 175 384.046 173.2C380.445 171.5 374.445 168.3 370.544 166.2C366.644 164.1 359.443 160.2 354.542 157.5C349.642 154.9 345.441 152.3 345.341 151.8C345.141 151.4 344.641 151.2 344.041 151.5C343.441 151.8 343.041 151.5 343.041 151C343.041 150.4 342.241 149.8 341.341 149.6C340.341 149.4 338.84 148.9 337.94 148.5C336.54 147.9 336.34 161.5 335.94 300.1C335.74 383.9 335.84 454.1 336.24 456V456ZM942.112 501V611.7C942.212 714.6 942.112 722.6 940.512 724C939.212 725.2 935.212 725.6 922.21 725.8C906.808 726.1 905.408 726 900.607 722.2L900.307 613.9C900.007 516.6 900.107 505.5 901.608 503.3C903.108 501 903.308 501 942.112 501V501ZM574.068 755.3C582.87 755.5 585.47 756 590.07 758.1C593.071 759.5 597.271 762.3 599.372 764.3C601.372 766.3 603.572 769.1 604.072 770.5C604.672 771.9 604.772 773.6 604.372 774.4C603.872 775.2 601.772 777.2 599.572 779C597.371 780.7 594.571 782.3 593.371 782.6C591.771 782.9 589.87 781.9 587.07 779.5C584.87 777.6 582.069 775.5 580.869 774.8C579.569 774.2 575.969 773.6 572.868 773.6C568.668 773.5 566.468 774 564.367 775.6C562.867 776.7 560.767 779.2 559.867 781.1C558.267 784.1 558.067 787.6 558.067 808.7C558.067 827.9 558.367 833.8 559.567 836.7C560.367 838.9 562.367 841.3 564.067 842.2C565.968 843.4 569.168 844 573.068 844C578.269 844 579.469 843.6 582.369 841.1C585.47 838.2 585.57 837.9 586.07 820H580.569C576.969 820 574.569 819.5 573.568 818.5C572.568 817.5 572.068 815.1 572.068 811.2C572.068 807.2 572.668 805 573.868 803.7C575.369 802.2 577.469 801.9 589.87 802C601.172 802 604.372 802.3 605.572 803.5C606.772 804.7 607.072 808.2 607.072 822.2C607.072 838.2 606.872 839.9 604.772 844.5C603.472 847.2 601.572 850.6 600.472 851.8C599.472 853.1 596.771 855.4 594.571 857C592.371 858.5 588.07 860.5 585.07 861.4C582.069 862.3 576.469 863 572.568 863C568.768 863 563.067 862.3 560.067 861.4C557.066 860.5 552.566 858.3 550.066 856.5C547.565 854.8 544.365 851.6 542.865 849.4C541.465 847.3 539.764 843.9 539.164 842C538.464 839.9 538.064 827.2 538.064 809.5C538.064 784.7 538.364 779.7 539.864 775.1C540.765 772.2 543.165 767.9 545.065 765.7C546.965 763.5 549.966 761 551.566 760.1C553.266 759.2 556.566 757.7 559.067 756.8C562.467 755.5 566.068 755.1 574.068 755.3ZM737.588 755.1C743.389 755 747.389 755.6 752.09 757.2C757.09 758.9 759.891 760.7 764.191 765C768.592 769.2 770.192 771.7 771.492 776C772.792 780.5 773.092 786.4 773.092 809C773.092 831.7 772.792 837.5 771.492 842C770.292 845.8 768.392 849 765.191 852.3C762.691 855 758.09 858.4 755.09 859.8C750.089 862.3 748.489 862.5 738.088 862.5C727.187 862.5 726.187 862.3 720.086 859.4C716.085 857.5 712.085 854.5 709.785 851.9C707.284 849 705.284 845.2 704.084 841C702.384 835.3 702.084 831.3 702.084 808.7C702.084 784.7 702.284 782.5 704.284 776.2C705.984 771.1 707.784 768.3 711.585 764.4C715.585 760.3 717.986 758.8 723.086 757.2C727.187 756 732.587 755.1 737.588 755.1ZM725.387 778.7C724.186 780.2 723.186 782.2 723.186 783C723.186 783.8 723.186 795.4 723.086 808.7C723.086 822.1 723.386 833.8 723.686 834.7C723.986 835.7 724.786 837.6 725.387 838.9C726.087 840.2 727.787 841.9 729.387 842.6C730.887 843.4 734.588 844 737.588 844C740.588 844 744.489 843.3 746.089 842.5C747.789 841.7 749.789 839.6 750.59 838C751.79 835.6 752.09 830.1 752.09 808.7C752.09 784.3 751.99 782.3 750.089 779.2C748.989 777.5 747.189 775.5 746.089 775C744.989 774.4 742.189 773.8 739.888 773.5C737.288 773.2 733.988 773.6 731.587 774.5C729.387 775.3 726.587 777.2 725.387 778.7V778.7ZM797.495 756C801.396 756 805.296 756.5 806.096 757C807.396 757.8 807.696 763.8 808.096 797.8C808.496 831.4 808.797 837.9 810.097 839.1C810.897 839.9 812.697 841.4 814.097 842.3C815.797 843.4 818.498 844 822.398 844C825.498 844 829.499 843.3 831.099 842.5C832.799 841.7 834.8 840 835.6 838.7C836.9 836.8 837.1 830.7 837.1 798.2C837.1 761.3 837.2 759.9 839.1 758C840.7 756.4 842.401 756 847.601 756C851.202 756 855.002 756.4 856.102 757C858.102 758 858.102 759 858.102 839.5L855.702 844.5C854.402 847.2 851.402 851.4 849.001 853.7C846.601 856 842.401 858.9 839.6 860.2C835.3 862.1 832.899 862.5 823.098 862.5C812.197 862.5 811.197 862.3 805.096 859.4C801.096 857.5 797.095 854.5 794.795 851.9C792.695 849.5 790.694 846.4 790.394 845C790.094 843.6 789.294 841.9 788.694 841.1C787.994 840.1 787.394 826.9 787.094 799.7C786.694 761.6 786.694 759.7 788.494 757.9C789.994 756.4 791.895 756 797.495 756V756ZM917.709 756.5L924.61 760C929.811 762.6 932.511 764.8 935.312 768.5C937.312 771.2 939.612 775.5 940.212 778C940.912 780.5 941.512 785 941.512 788C941.512 791 940.812 795.7 940.112 798.5C939.012 802.2 937.312 804.9 933.111 809.1C929.111 813.2 925.91 815.4 921.61 817C917.209 818.7 912.709 819.4 893.607 820.2L894.007 838.9C894.207 851.3 893.94 858.233 893.207 859.7C892.206 861.8 891.406 862 883.605 862C876.105 862 875.004 861.8 874.104 860C873.504 858.8 873.104 839.4 873.004 808.6C873.004 763 873.104 759 874.704 757.5C876.205 756 878.905 755.9 917.709 756.5ZM894.107 801C909.108 801 913.109 800.5 915.109 799.5C916.809 798.7 918.81 796.6 919.61 795C920.41 793.3 921.11 790.4 921.11 788.5C921.11 786.6 920.31 783.3 919.21 781.2C918.21 779.2 916.209 776.9 914.709 776.2C913.209 775.5 908.208 775 903.108 775H894.107V801ZM620.374 501.2C642.277 501.5 646.477 501.7 647.177 503C647.577 503.8 649.277 509.7 650.878 516C652.478 522.3 655.478 534 657.578 542C659.579 550 662.579 561.7 664.179 568C665.879 574.3 668.48 584.5 669.98 590.5C671.58 596.5 673.38 603.5 673.98 606C674.581 608.5 676.981 617.5 679.181 626C681.481 634.5 684.182 645.3 685.182 650C686.282 654.7 687.382 658.7 687.582 659C687.782 659.3 690.282 668.5 693.083 679.5C695.883 690.5 699.283 704 700.684 709.5C702.084 715 702.884 720.5 702.584 721.7C702.284 723 700.984 724.5 699.583 725C698.183 725.5 690.182 726 681.881 726C669.28 726 665.979 725.7 663.079 724.2C660.379 722.9 659.479 721.7 658.979 719C658.579 717.1 657.178 710.8 655.778 705C654.378 699.2 652.678 692 651.978 689C651.378 686 650.378 682.7 649.978 681.7C649.177 680.1 646.677 680 590.07 680L588.57 685.2C587.77 688.1 586.47 693.9 585.57 698C584.67 702.1 583.27 708.9 582.269 713C581.369 717.1 579.569 721.6 578.369 723C576.269 725.4 575.869 725.5 561.367 725.8C552.666 726 545.065 725.7 542.865 725.1C540.664 724.5 538.564 723.1 537.964 721.7C537.064 720 537.264 718.1 538.964 713C540.064 709.4 541.765 703.8 542.565 700.5C543.365 697.2 544.065 693.6 544.065 692.5C544.065 691.4 545.165 687.3 546.465 683.5C547.765 679.6 549.066 674.2 549.466 671.5C549.866 668.7 551.266 663.1 552.566 659C553.766 654.9 555.166 649.5 555.566 647C555.866 644.5 557.066 639.8 558.167 636.5C559.167 633.2 560.867 626.7 561.967 622C562.967 617.3 567.768 598.2 572.568 579.5C577.269 560.8 581.869 542.6 582.669 539C583.47 535.4 584.97 529.3 585.97 525.5C587.07 521.6 588.67 515.3 589.57 511.5C590.47 507.6 591.871 503.7 592.771 502.7C594.271 501.1 596.571 501 620.374 501.2V501.2ZM617.674 554.5C616.774 558.4 615.873 563.1 615.573 565C615.273 566.9 614.573 571.2 613.973 574.5C613.373 577.8 612.073 583.6 611.073 587.5C610.073 591.3 608.673 597.6 608.073 601.5C607.372 605.3 606.072 611.6 605.072 615.5C604.072 619.3 602.772 625.9 602.172 630C601.472 634.1 600.672 638 600.272 638.5C599.872 639 599.472 640.5 599.372 641.7L599.071 644H640.076C639.476 637.4 638.976 634.8 638.676 634C638.376 633.2 637.176 628.7 636.076 624C634.976 619.3 633.976 613.9 633.876 612C633.876 610.1 633.476 608.3 633.076 608C632.675 607.7 630.975 601.4 629.375 594C627.675 586.6 625.075 574.9 623.574 568C622.074 561.1 620.474 553.7 620.074 551.5L619.374 547.5L617.674 554.5ZM815.497 501L824.498 503.5C829.499 505 836 507.6 838.9 509.3C841.9 511.1 847.301 515.4 850.802 519C854.402 522.6 858.402 527.7 859.703 530.3C861.003 532.9 862.703 537.6 863.503 540.8C864.403 543.9 865.303 550.1 865.603 554.5C866.003 559.3 865.703 564.9 865.003 568.5C864.303 571.8 862.203 577.7 860.303 581.5C858.402 585.4 856.202 589.2 855.602 590C854.902 590.8 851.302 594.6 847.701 598.3C842.2 603.9 841.3 605.1 842.801 605.7C843.701 606.1 846.801 607.9 849.501 609.8C852.302 611.7 855.902 614.7 857.502 616.5C859.203 618.3 861.503 621 862.803 622.4C864.003 623.8 865.303 626.4 865.503 628C865.803 629.7 866.503 631 867.003 631C867.604 631 869.204 635 870.704 639.8C873.104 647.9 873.304 649.5 872.804 661C872.404 669.7 871.604 675.3 870.204 679.5C869.104 682.8 866.803 688.2 865.203 691.5C863.503 694.8 859.803 700.3 856.902 703.7C853.902 707 849.201 711.4 846.301 713.4C843.401 715.4 839.1 717.9 836.8 719C834.4 720.1 829.799 721.6 826.499 722.5C823.198 723.3 816.497 724.5 811.497 725.1C806.296 725.7 786.094 726 762.891 725.8C724.786 725.5 723.186 725.4 718.986 721.5L718.786 613.1C718.686 509.3 718.686 504.6 720.486 502.8C722.186 501.1 725.087 501 815.497 501V501ZM761.791 562.4C761.991 579.6 762.291 585.8 763.291 586.8C764.191 587.7 769.492 588 783.293 588C794.395 588 803.996 587.5 806.796 586.8C809.797 586.1 812.897 584.3 815.197 582.1C817.197 580.1 819.598 576.7 820.598 574.5C821.498 572.3 822.498 567.3 822.698 563.3C822.898 558.3 822.498 554.7 821.398 551.8C820.498 549.4 818.398 546.3 816.697 544.7C814.897 543.2 812.197 541.2 810.497 540.3C807.996 538.9 803.796 538.5 785.494 538.2C773.392 538 763.091 538.2 762.591 538.6C762.091 539 761.791 549.7 761.791 562.4V562.4ZM762.391 657L762.491 686.5C798.295 687 807.396 686.7 810.997 685.9C815.597 684.9 817.298 683.9 821.298 679.6C824.898 675.7 826.399 673.1 827.699 668.5C828.799 664.2 829.099 660.1 828.699 654C828.399 649.3 827.499 643.6 826.599 641.3C825.699 638.9 823.998 635.9 822.798 634.4C821.498 633 818.298 630.4 815.497 628.7L810.497 625.5C767.692 624.9 763.091 625.1 762.691 626.2C762.391 626.9 762.291 640.8 762.391 657V657ZM645.877 756.2C663.379 756.6 668.38 757 671.98 758.4C674.48 759.3 678.281 761.6 680.481 763.4C682.681 765.2 685.682 769.1 687.182 772.1C688.682 775.1 690.182 780 690.582 783C690.982 786.8 690.682 790.6 689.482 795C688.582 798.6 686.882 803.1 685.682 805C684.482 806.9 681.881 810.3 679.881 812.5C677.881 814.7 676.081 817.2 675.981 818C675.781 818.8 676.881 822.2 678.381 825.5C679.881 828.8 683.882 837.6 687.382 845C692.083 854.9 693.583 859 692.883 860.3C692.183 861.7 690.582 862 683.282 862C677.781 862 673.88 861.6 672.78 860.8C671.88 860.1 669.38 855.7 667.18 851C664.979 846.3 662.879 841.4 662.479 840C662.079 838.6 661.479 837.3 661.079 837C660.679 836.7 659.579 834.3 658.579 831.5C657.478 828.8 656.078 825.5 655.378 824.3C654.178 822.3 653.178 822 641.977 822V840C641.977 850 641.577 858.9 640.977 860C640.076 861.8 638.976 862 630.975 862C622.974 862 621.874 861.8 620.974 860C620.374 858.8 619.974 839.7 619.974 809C619.974 760.7 620.074 760 622.074 757.9C624.074 755.9 624.975 755.9 645.877 756.2ZM641.977 803C660.679 803 662.279 802.7 663.979 801C665.079 799.9 666.88 797.1 667.98 794.8C669.08 792.4 669.98 789.4 669.98 788C669.98 786.6 669.08 783.7 668.08 781.5C666.98 779.3 664.979 777 663.579 776.3C662.079 775.5 657.078 775 651.478 775H641.977V803Z" fill="#061B38"/>
<path d="M140.517 277.5C140.217 276.7 139.417 276 138.816 276.1H138.716C138.116 276.1 136.616 276.7 135.516 277.4C134.416 278.1 120.514 285.6 104.712 294.1L75.9089 309.5C76.609 464.3 76.9091 479.3 78.3092 489C79.2093 495.3 81.1096 506.6 82.4097 514C83.8099 521.4 86.0101 531.5 87.2103 536.5C88.7105 542.3 90.0106 545.6 91.0107 545.8C91.8108 546 96.5114 542 101.612 536.8C106.513 531.7 112.913 524.1 115.714 520C118.414 515.9 122.114 510 123.815 507C125.515 504 128.515 497.4 130.515 492.5C132.516 487.5 135.216 479 136.616 473.5C137.916 468 139.517 458.8 140.017 453C140.617 447.1 141.017 406.7 141.017 360.7C141.017 315.8 140.817 278.3 140.517 277.5Z" fill="#E31E24"/>
<path d="M150.318 518.7C149.318 514.5 148.018 511 147.417 511C146.817 511 145.917 511.6 145.317 512.2C144.817 512.9 143.317 515.5 142.117 518C140.817 520.5 137.916 525.4 135.516 529C133.216 532.6 127.715 539.8 123.315 545C119.014 550.2 111.313 558 106.213 562.2L97.1115 570C100.012 578.1 103.012 585.7 105.612 592C108.113 598.3 112.913 608.9 116.214 615.5C119.514 622.1 122.815 628.1 123.415 628.8C124.415 629.8 126.615 628.6 134.616 622.7C140.117 618.7 148.018 612.3 152.318 608.5C156.519 604.6 163.119 598 167.02 593.7C173.921 586.2 174.121 585.9 172.72 583.2C171.92 581.7 169.22 575.5 166.62 569.5C164.019 563.5 159.719 551.7 157.019 543.5C154.318 535.2 152.118 528 152.118 527.5C152.118 527 151.318 523 150.318 518.7Z" fill="#E31E24"/>
<path d="M187.822 611.2C186.722 609.2 185.422 608 184.122 608C183.022 608 181.722 608.8 181.322 609.7C180.921 610.7 175.021 616.5 168.12 622.8C161.219 629 151.018 637.3 145.417 641.3C139.817 645.3 135.116 648.8 135.116 649.2C135.116 649.7 137.616 653.9 140.817 658.7C143.917 663.6 148.918 670.9 151.918 675C154.918 679.1 160.619 686.4 164.52 691.3C168.42 696.1 172.22 700.3 172.821 700.5C173.521 700.8 177.621 698.5 181.822 695.4C186.122 692.3 193.223 686.8 197.623 683.2C202.024 679.6 209.325 673.2 213.925 669.1C218.426 664.9 222.126 660.9 222.126 660.2C222.126 659.6 218.426 654.4 213.825 648.7C209.225 643.1 201.924 633.1 197.523 626.5C193.023 619.9 188.722 613 187.822 611.2Z" fill="#E31E24"/>
<path d="M245.329 683.4L237.428 676.3L225.527 687.2C218.926 693.2 208.125 702.2 201.324 707.3C193.723 713 189.122 717.2 189.122 718.2C189.122 719.2 195.323 725.6 202.824 732.4C210.425 739.3 221.126 748.5 226.627 752.9C232.128 757.4 237.028 761 237.628 761C238.128 761 243.529 757 249.63 752.1C255.63 747.2 266.632 737.8 273.833 731.1C281.133 724.5 287.134 718.4 287.034 717.7C287.034 717.1 283.334 713.9 278.833 710.8C274.333 707.7 266.732 701.8 261.931 697.8C257.131 693.8 249.73 687.3 245.329 683.4Z" fill="#E31E24"/>
<path d="M227.227 157.4C227.427 46.2 227.327 33.1 225.927 32.3C224.827 31.6 221.927 32.7 214.926 36.5C209.725 39.3 195.823 46.9 184.022 53.3L162.519 64.9V250.5C181.922 261.1 196.023 268.7 206.325 274.3C221.927 282.7 225.327 284.2 226.127 283C226.627 282.1 227.127 228.3 227.227 157.4Z" fill="#F08143"/>
<path d="M183.522 286.4C173.121 280.7 163.92 276 163.22 276C162.119 276 162.019 293.4 162.319 372.3C162.619 438.3 163.12 471.2 163.92 477C164.52 481.7 166.02 490.5 167.12 496.5C168.22 502.6 170.52 512.7 172.121 519C173.821 525.3 176.621 535 178.521 540.5C180.422 546 183.122 553.6 184.722 557.4C186.222 561.2 187.923 564.5 188.523 564.7C189.123 564.9 191.823 561.1 194.723 556.3C197.524 551.4 201.724 543.8 203.924 539.3C206.225 534.7 209.225 528 210.625 524.3C212.125 520.5 214.526 513.5 216.126 508.5C217.726 503.6 220.426 493.1 222.027 485.3C223.727 477.4 225.327 467.5 225.627 463.3C226.027 459 226.427 423.6 226.727 384.5C226.927 345.5 226.927 312.6 226.627 311.5C226.327 310.2 222.127 307.3 214.326 303.1C207.825 299.6 193.923 292.1 183.522 286.4Z" fill="#F08143"/>
<path d="M240.629 522.3C239.729 519.4 238.629 516.8 238.128 516.5C237.628 516.2 236.728 516.7 236.228 517.7C235.728 518.7 234.528 522 233.528 525C232.528 528 229.527 535.3 226.827 541.3C224.227 547.2 219.726 556.2 216.926 561.3C214.126 566.3 209.125 574.3 205.925 579C202.724 583.7 200.124 588.2 200.124 589C200.124 589.8 202.424 594.3 205.225 599C208.025 603.7 213.226 611.8 216.826 617C220.426 622.2 226.327 630.2 229.928 634.8C233.528 639.3 236.928 643 237.528 643C238.028 643 242.129 638.4 246.63 632.7C251.03 627.1 256.931 619.1 259.731 615C262.531 610.9 267.032 603.6 269.932 598.8C272.733 593.9 275.033 589.4 275.033 588.8C275.033 588.1 272.833 584.4 270.132 580.5C267.432 576.7 262.731 569 259.531 563.5C256.331 558 252.53 550.8 251.03 547.5C249.53 544.2 246.93 538.4 245.329 534.5C243.629 530.7 241.529 525.1 240.629 522.3Z" fill="#F08143"/>
<path d="M300.636 617L290.335 607L287.534 611.7C285.934 614.4 281.234 621.7 276.933 628C272.633 634.3 265.532 644 261.131 649.5C256.731 655 253.03 659.7 253.03 660C253.03 660.3 256.731 664.1 261.231 668.5C265.832 672.9 274.033 680.1 279.533 684.5C285.034 689 292.235 694.4 295.535 696.7C298.836 699 302.036 700.5 302.536 700.2C303.136 699.8 305.837 696.8 308.637 693.5C311.437 690.2 316.838 683.2 320.738 678C324.539 672.8 330.439 664.3 333.84 659.3C337.24 654.2 340.041 649.7 340.041 649.3C340.041 648.8 337.94 647.2 335.24 645.5C332.64 643.9 326.139 639 320.738 634.8C315.438 630.5 306.337 622.5 300.636 617Z" fill="#F08143"/>
<path d="M312.737 308.8C313.037 154.2 313.037 147 311.337 147.1C310.337 147.1 296.135 154.4 279.733 163.3C263.331 172.2 249.53 180.3 248.93 181.3C248.43 182.3 248.129 236.4 248.329 323.3C248.63 447.9 248.83 464.6 250.33 473.5C251.23 479 252.93 487.3 254.03 492C255.23 496.7 257.431 504.6 259.031 509.5C260.531 514.5 263.931 523.5 266.532 529.5C269.132 535.5 272.432 542.5 273.833 545C275.233 547.5 278.333 553 280.633 557.3C283.034 561.5 285.334 565 285.734 565C286.234 565.1 287.034 564.5 287.634 563.8C288.234 563.1 289.434 560.5 290.435 558C291.335 555.5 293.935 548.5 296.035 542.5C298.135 536.5 301.036 527.2 302.436 522C303.836 516.8 305.936 508 307.037 502.5C308.137 497 309.837 487.6 310.737 481.5C312.237 471.7 312.437 453.1 312.737 308.8Z" fill="#FECC00"/>
<path d="M334.34 520.1C331.739 515.5 329.039 511.5 328.339 511.3C327.739 511 326.939 511.4 326.739 512.2C326.439 512.9 325.639 516 325.039 519C324.339 522 322.538 529 320.838 534.5C319.238 540 316.538 548.1 315.037 552.5C313.437 556.9 311.037 563.2 309.737 566.5C308.337 569.8 305.836 575.5 304.136 579.3L301.036 586C311.537 597.2 318.138 603.8 322.538 607.9C326.939 612 334.74 618.4 339.74 622.2C344.841 625.9 349.742 629 350.542 629C351.342 629 353.342 626.6 354.942 623.8C356.442 620.9 360.343 612.9 363.543 606C366.644 599.1 370.344 590.6 371.744 587C373.044 583.4 375.045 578.3 376.045 575.5L377.945 570.5C364.443 558.3 357.643 551.5 354.142 547.6C350.642 543.7 345.841 537.8 343.541 534.5C341.141 531.2 337.04 524.7 334.34 520.1Z" fill="#FECC00"/>
</svg>
