<svg width="943" height="863" viewBox="0 0 943 863" fill="none" xmlns="http://www.w3.org/2000/svg">
<path fill-rule="evenodd" clip-rule="evenodd" d="M246.529 3.5C243.129 1.5 239.229 0 237.528 0C235.928 0 232.728 1.1 230.528 2.5C228.327 3.8 225.627 5.3 224.527 5.8C223.427 6.3 212.825 12 201.024 18.5C189.223 25 174.321 33 168.02 36.3C161.719 39.6 153.018 44.3 148.618 46.9C144.317 49.4 140.517 52 140.117 52.5C139.817 53 139.317 97.8 139.017 152L138.517 250.5C125.315 257.7 118.814 261.2 115.514 262.9C112.213 264.6 106.813 267.5 103.512 269.3C102.072 270.085 99.8898 271.271 97.4299 272.606L97.4093 272.617L97.3649 272.642C94.2023 274.359 90.59 276.32 87.5104 278C82.0098 280.9 73.7088 285.3 69.0082 287.8C64.3077 290.2 60.4072 292.7 60.3072 293.1C60.1072 293.6 59.3071 294 58.507 294C57.7069 294 56.1067 294.9 55.0066 296C53.0063 298 53.0063 299.4 53.0063 370.7C52.9063 430.3 52.7063 445 51.5061 451.5C50.506 456.9 48.8058 461.6 46.3055 466C44.3053 469.6 40.1048 475 37.1044 478C33.604 481.5 28.6034 485 24.0029 487.3C19.5023 489.5 13.3016 491.6 8.50101 492.5C6.87903 492.795 5.35216 493.063 4.06564 493.288L4.04978 493.291L4.04202 493.292C1.85105 493.676 0.362959 493.937 0.300036 494C0.100012 494 0 499.2 0 505.5V517C8.90106 516.1 14.3017 515.2 17.8021 514.4C21.2025 513.6 26.8032 511.8 30.3036 510.4C33.704 508.9 38.5046 506.4 41.0049 504.7C43.5052 503 47.9057 499.7 50.8061 497.3C53.6064 494.9 56.2067 493.3 56.4067 493.7C56.6068 494.2 57.0068 497.8 57.4069 501.7C57.7069 505.7 58.507 509.2 59.007 509.5C59.6071 509.8 60.0072 511.5 60.0072 513.2C60.0072 515 60.8073 520.5 61.7074 525.5C62.7075 530.5 63.7076 534.7 64.1077 535C64.4077 535.3 64.7077 536.2 64.7077 537C64.7077 537.8 65.7078 542.5 67.008 547.5C68.2081 552.5 69.6083 557.1 70.1084 557.7C70.6084 558.4 70.8084 559.5 70.5084 560C70.2084 560.5 66.1079 563 61.3073 565.4C56.4067 567.8 48.5058 571.1 43.5052 572.8C38.6046 574.4 30.2036 576.5 25.003 577.3C19.8024 578.2 12.0014 579.1 7.80093 579.4L0 580V603.5C15.9019 602.4 24.3029 601.5 29.0035 600.6C33.704 599.8 43.1051 597.2 50.006 595C56.9068 592.8 65.8079 589.4 69.8083 587.5C73.7088 585.6 77.5092 584 78.0093 584C78.6094 584 79.0094 584.5 79.0094 585C79.0094 585.5 80.5096 589.9 82.4098 594.7C84.3101 599.6 88.6106 609.6 92.011 617C95.3114 624.4 99.2118 632.2 100.512 634.2C101.912 636.3 103.012 638.7 103.012 639.5C103.012 640.4 100.112 642.5 96.3115 644.4C92.511 646.2 85.5102 649.3 80.5096 651.3C75.609 653.3 66.6079 656.2 60.5072 657.9C54.5065 659.5 45.5054 661.5 40.5048 662.3C35.6042 663.2 28.6034 664.1 25.003 664.5C21.4026 664.8 14.5017 665.3 9.50113 665.5L0.50006 665.9L0 689C15.1018 689 23.4028 688.5 28.3034 688C33.104 687.4 42.5051 685.9 49.3059 684.5C56.0067 683.1 66.0079 680.6 71.5085 678.9C77.0092 677.2 86.5103 673.9 92.511 671.5C98.6118 669.1 106.213 665.8 109.513 664L115.514 660.9C125.215 676.1 128.415 680.6 129.015 680.7C129.515 680.9 130.016 681.6 130.016 682.2C130.016 682.9 132.016 686 134.316 689C136.616 692 138.717 694.7 139.017 695C139.317 695.3 140.717 697.1 142.017 699C143.317 700.9 146.317 704.7 148.718 707.5L153.018 712.5C133.216 722.4 123.415 727 118.514 729C113.614 731.1 106.113 733.9 102.012 735.3C97.9117 736.7 90.7108 739 86.0103 740.4C81.3097 741.7 72.8087 743.9 67.008 745.1C61.2073 746.3 53.4064 747.9 49.5059 748.6C45.7055 749.3 34.0041 750.4 23.5028 751C13.1016 751.7 3.50042 752.4 2.30027 752.6C0.100012 753 0 753.4 0 764C0 773.6 0.200024 775.1 1.80021 775.5C2.70032 775.8 7.80093 775.8 13.0016 775.5C18.2022 775.2 26.3031 774.7 31.0037 774.4C35.7043 774.1 43.6052 773.2 48.5058 772.3C52.3262 771.689 58.1898 770.611 63.1976 769.69C64.7446 769.405 66.2099 769.136 67.5081 768.9C73.0087 767.9 82.0098 765.8 87.5104 764.1C93.0111 762.5 100.912 760.2 105.013 759C109.113 757.8 117.414 754.8 123.515 752.3C129.615 749.9 142.317 744.1 151.818 739.5L169.02 731C187.222 748.3 197.224 757.3 203.024 762.2C208.825 767.1 214.326 771.8 215.226 772.8C216.926 774.4 216.926 774.6 215.226 775.6C214.515 776.074 210.936 778.231 206.605 780.841L206.572 780.861C205.429 781.55 204.233 782.271 203.024 783C197.224 786.4 187.322 791.9 181.022 795.2C174.721 798.5 162.819 804 154.518 807.4C146.317 810.9 135.416 815.1 130.516 816.7C125.615 818.4 117.714 821 113.013 822.4C108.313 823.8 100.012 826 94.5113 827.4C89.0106 828.7 76.6091 831.2 67.008 832.9C57.4068 834.5 43.4052 836.4 36.0043 837C28.6034 837.5 18.1022 838 12.8015 838C7.40088 838 2.30027 838.2 1.50018 838.5C0.300036 838.9 0 841.1 0 849.5C0 857.5 0.400048 860.4 1.50018 861.5C2.30027 862.3 3.30039 862.8 3.80045 862.6C4.2005 862.4 11.7014 861.9 20.5024 861.6C29.3035 861.2 40.1048 860.5 44.5053 860C48.9058 859.5 55.2066 858.6 58.507 858C61.8074 857.4 67.408 856.5 71.0085 856C74.6089 855.5 79.5095 854.6 82.0098 854C84.5101 853.4 87.9105 852.7 89.5107 852.4C91.2109 852.1 95.9114 851 100.012 850C104.112 849 112.013 847 117.514 845.5C123.015 844 128.115 842.3 128.815 841.6C129.515 841 130.116 840.9 130.016 841.5C129.915 842.1 130.416 842.1 131.216 841.4C131.916 840.8 134.816 839.7 137.516 839C140.317 838.3 145.917 836.4 150.018 834.8C150.514 834.606 151.035 834.404 151.57 834.195C155.455 832.682 160.146 830.855 162.519 829.8C165.32 828.6 174.521 824.3 183.022 820.3C191.523 816.2 203.924 809.7 210.525 805.8C217.126 801.9 225.827 796.5 229.827 793.8C233.728 791.2 237.228 789 237.528 789C237.828 789 240.829 790.9 244.329 793.3C247.73 795.7 257.731 801.8 266.532 806.8C275.333 811.8 290.135 819.5 299.536 823.9C308.937 828.2 318.538 832.3 321.038 833.1C323.539 833.8 326.439 834.9 327.539 835.6C328.639 836.3 332.24 837.5 335.54 838.4C336.413 838.665 337.294 838.929 338.131 839.181L338.177 839.195L338.181 839.196C340.486 839.889 342.457 840.481 343.041 840.7C343.465 840.859 343.917 841.046 344.293 841.202L344.296 841.203C344.402 841.247 344.501 841.288 344.592 841.325C344.788 841.405 344.945 841.468 345.041 841.5C345.119 841.526 345.237 841.572 345.383 841.631C345.501 841.679 345.638 841.736 345.786 841.797C346.163 841.953 346.616 842.141 347.041 842.3C347.841 842.7 352.642 844.1 357.543 845.5C362.443 846.9 373.545 849.6 382.046 851.6C390.547 853.6 400.448 855.6 404.048 856C407.649 856.5 414.349 857.5 419.05 858.3C423.751 859.1 430.451 860.1 434.052 860.4C437.652 860.7 446.453 861.2 453.554 861.5C460.655 861.8 468.156 862.3 470.056 862.6C473.056 863.1 473.757 862.8 474.857 860.6C475.557 859.1 476.057 854.3 476.057 849.5C476.057 843.3 475.657 840.6 474.557 839.5C473.456 838.4 470.556 838 462.855 838C457.155 838 446.453 837.5 439.052 837C431.651 836.4 419.05 834.8 411.049 833.5C403.048 832.1 390.447 829.6 383.046 827.9C375.645 826.2 361.943 822.3 352.542 819.3C343.141 816.3 330.139 811.5 323.539 808.8C316.938 806 305.436 800.7 298.036 797C290.635 793.3 280.433 787.9 275.533 785C270.632 782.1 265.632 779.2 264.532 778.6C263.431 778 261.431 776.7 260.031 775.7L257.531 774C261.431 771.3 267.432 766.3 273.533 761.1C279.633 755.9 289.134 747.1 294.835 741.6C300.536 736 305.436 731.4 305.836 731.2C306.237 731.1 313.937 734.7 323.039 739.3C332.14 743.9 344.941 749.7 351.542 752.3C358.143 754.8 367.844 758.2 373.044 759.9C378.245 761.5 386.846 764 392.047 765.4C397.247 766.8 406.949 768.9 413.549 770L414.93 770.251L416.052 770.455C421.627 771.467 426.353 772.326 427.051 772.5C427.851 772.7 433.052 773.4 438.552 773.9C444.053 774.4 454.054 775.1 460.855 775.4C470.856 775.9 473.356 775.7 474.557 774.5C475.657 773.4 476.057 770.7 476.057 764C476.057 757.3 475.657 754.6 474.557 753.5C473.556 752.5 471.056 752 466.856 752C463.355 752 454.254 751.5 446.553 751C438.852 750.4 429.151 749.3 425.051 748.5C422.293 747.962 417.815 747.062 413.505 746.195L410.911 745.674C409.732 745.437 408.597 745.21 407.549 745C402.048 743.8 393.747 741.7 389.046 740.4C384.346 739 377.145 736.7 373.044 735.3C368.944 733.9 361.743 731.2 357.043 729.3C352.342 727.3 342.841 722.9 335.84 719.4C328.739 715.9 323.039 712.7 323.039 712.2C323.039 711.8 325.539 708.4 328.639 704.5C331.64 700.6 336.04 695 338.44 692C340.841 689 346.541 680.8 351.142 673.9L359.543 661.3C367.344 665.2 374.245 668.2 380.045 670.5C385.846 672.8 393.447 675.7 397.047 676.8C398.035 677.102 399.203 677.464 400.459 677.853L400.466 677.855L400.468 677.856C403.789 678.884 407.721 680.103 410.549 680.9C414.449 682 422.25 683.9 428.051 685C433.852 686.1 442.353 687.5 447.053 688C451.754 688.5 459.955 689 465.355 689C473.056 689 475.157 688.7 475.557 687.5C475.857 686.7 476.057 682.2 476.057 677.5C476.057 671.3 475.657 668.6 474.557 667.5C473.757 666.7 471.556 666 469.856 665.9C468.056 665.9 465.155 665.7 463.555 665.5C462.954 665.462 461.845 665.368 460.444 665.25L460.443 665.25C458.117 665.052 454.988 664.787 452.054 664.6C447.353 664.2 439.452 663.2 434.552 662.4C429.651 661.5 420.65 659.5 414.549 657.9C408.449 656.2 399.448 653.3 394.547 651.4C389.646 649.4 382.446 646.2 378.545 644.3C374.645 642.3 371.344 640.6 371.044 640.4C370.744 640.2 371.744 638.3 373.245 636.3C374.745 634.2 377.345 629.4 379.145 625.5C380.001 623.536 381.061 621.217 382.054 619.041L382.056 619.037L382.057 619.034C383.036 616.892 383.951 614.888 384.546 613.5C385.846 610.8 388.446 604.7 390.347 600C392.247 595.3 394.447 589.8 395.147 587.7C395.947 585.7 396.847 584 397.347 584C397.747 584 401.748 585.8 406.348 587.9C410.849 590 419.75 593.4 426.051 595.4C432.352 597.4 441.153 599.7 445.553 600.6C449.954 601.4 457.855 602.4 463.155 602.8C471.056 603.4 473.056 603.2 474.457 602C475.857 600.8 476.157 598.7 476.057 591.5C476.057 586.5 475.657 582 475.257 581.3C474.857 580.7 469.456 579.7 463.055 579C456.754 578.4 448.553 577.2 444.853 576.4C441.053 575.6 435.252 574.1 431.852 572.9C428.351 571.8 420.95 568.6 415.35 565.9C409.049 562.9 405.048 560.4 405.048 559.5C405.048 558.7 406.548 552.3 408.449 545.3C410.349 538.2 412.649 528.9 413.449 524.5C414.249 520.1 415.25 514.9 415.65 513C415.95 511.1 416.75 505.9 417.25 501.5C417.85 497.1 418.45 493.3 418.65 493C418.85 492.7 421.35 494.5 424.251 497C427.151 499.5 431.151 502.7 433.052 504.1C434.952 505.6 439.652 508.1 443.553 509.8C447.453 511.5 453.454 513.5 457.055 514.3C460.655 515.1 465.656 516.1 468.356 516.4C471.856 516.8 473.456 516.6 474.557 515.5C475.657 514.4 476.057 511.7 476.057 505.3C476.057 500.4 475.657 495.9 475.257 495.2C474.857 494.5 471.156 493.3 467.056 492.6C462.755 491.9 456.154 489.7 451.554 487.5C445.653 484.7 441.853 482 437.352 477.4C432.752 472.8 430.051 468.8 427.551 463.2C425.551 459 423.551 453 423.05 450C422.35 446.5 422.05 393.4 422.05 307.3C422.05 217.7 421.75 169.3 421.05 168C420.45 166.9 413.749 162.6 406.048 158.5C398.348 154.4 391.847 151 391.547 151C391.247 151 389.346 149.9 387.346 148.6C385.246 147.4 375.645 142.1 366.044 136.9C363.181 135.379 360.229 133.814 357.409 132.319L357.397 132.312C350.763 128.795 344.856 125.663 342.541 124.4L336.54 121.2C335.74 67.2 335.34 51.4 335.24 51.2C335.14 51.1001 333.342 50.2011 331.343 49.2018L331.34 49.2003L331.34 49.2C329.839 48.4857 327.064 47.0062 324.288 45.5267L324.286 45.5254C323.176 44.934 322.066 44.3425 321.038 43.8C318.594 42.442 310.109 37.857 299.592 32.1734L299.578 32.1663L299.562 32.1573C294.597 29.4745 289.181 26.5475 283.734 23.6C280.478 21.847 277.333 20.1534 274.377 18.5613C261.988 11.8888 252.911 7 252.83 7C252.63 7.1 249.83 5.5 246.529 3.5ZM260.531 148.4C255.63 151.1 250.93 153.8 250.23 154.4C249.13 155.3 248.93 144.2 249.13 93.7C249.23 59.7 249.63 32 250.13 32.2C250.53 32.3 264.632 39.9 312.037 65.5L311.537 121.1L300.036 127.2C296.99 128.843 293.945 130.463 291.453 131.789L291.451 131.79C288.788 133.206 286.757 134.287 286.034 134.7C284.634 135.5 280.433 137.8 276.533 139.8C275.577 140.315 274.423 140.938 273.153 141.623L273.152 141.623L273.15 141.624C269.238 143.735 264.23 146.438 260.531 148.4ZM338.64 469C337.74 463.8 336.64 457.9 336.24 456C335.84 454.1 335.74 383.9 335.94 300.1C336.34 161.5 336.54 147.9 337.94 148.5C338.84 148.9 340.341 149.4 341.341 149.6C342.241 149.8 343.041 150.4 343.041 151C343.041 151.5 343.441 151.8 344.041 151.5C344.641 151.2 345.141 151.4 345.341 151.8C345.441 152.3 349.642 154.9 354.542 157.5C359.443 160.2 366.644 164.1 370.544 166.2C374.445 168.3 380.445 171.5 384.046 173.2C387.646 175 390.747 176.8 391.047 177.1C391.347 177.4 393.047 178.5 398.047 181L398.348 314.2C398.448 387.5 398.247 452.9 397.847 459.5C397.736 461.333 397.618 463.335 397.498 465.359L397.496 465.387L397.496 465.39C397.184 470.646 396.864 476.044 396.647 479C396.347 483.1 395.047 493.7 393.547 502.5C392.147 511.3 390.147 522.1 389.146 526.5C388.553 528.875 387.871 531.774 387.244 534.443C386.71 536.719 386.214 538.827 385.846 540.3C385.146 543.4 384.346 546 384.046 546C383.746 546 379.945 542.3 375.545 537.8C371.144 533.2 366.344 528 364.844 526.2C363.243 524.5 362.043 522.8 362.043 522.5C362.043 522.2 360.343 519.4 358.243 516.2C356.143 513.1 353.242 508.5 351.842 506C350.442 503.5 347.241 496.3 344.741 490C342.241 483.5 339.541 474.4 338.64 469ZM942.112 611.7V501C903.308 501 903.108 501 901.608 503.3C900.107 505.5 900.007 516.6 900.307 613.9L900.607 722.2C905.408 726 906.808 726.1 922.21 725.8C935.212 725.6 939.212 725.2 940.512 724C942.112 722.6 942.212 714.6 942.112 611.7ZM590.07 758.1C585.47 756 582.87 755.5 574.068 755.3C566.068 755.1 562.467 755.5 559.067 756.8C556.566 757.7 553.266 759.2 551.566 760.1C549.966 761 546.965 763.5 545.065 765.7C543.165 767.9 540.765 772.2 539.864 775.1C538.364 779.7 538.064 784.7 538.064 809.5C538.064 827.2 538.464 839.9 539.164 842C539.764 843.9 541.465 847.3 542.865 849.4C544.365 851.6 547.565 854.8 550.066 856.5C552.566 858.3 557.066 860.5 560.067 861.4C563.067 862.3 568.768 863 572.568 863C576.469 863 582.069 862.3 585.07 861.4C588.07 860.5 592.371 858.5 594.571 857C596.771 855.4 599.472 853.1 600.472 851.8C601.572 850.6 603.472 847.2 604.772 844.5C606.872 839.9 607.072 838.2 607.072 822.2C607.072 808.2 606.772 804.7 605.572 803.5C604.372 802.3 601.172 802 589.87 802C577.469 801.9 575.369 802.2 573.868 803.7C572.668 805 572.068 807.2 572.068 811.2C572.068 815.1 572.568 817.5 573.568 818.5C574.569 819.5 576.969 820 580.569 820H586.07C585.57 837.9 585.47 838.2 582.369 841.1C579.469 843.6 578.269 844 573.068 844C569.168 844 565.968 843.4 564.067 842.2C562.367 841.3 560.367 838.9 559.567 836.7C558.367 833.8 558.067 827.9 558.067 808.7C558.067 787.6 558.267 784.1 559.867 781.1C560.767 779.2 562.867 776.7 564.367 775.6C566.468 774 568.668 773.5 572.868 773.6C575.969 773.6 579.569 774.2 580.869 774.8C582.069 775.5 584.87 777.6 587.07 779.5C589.87 781.9 591.771 782.9 593.371 782.6C594.571 782.3 597.371 780.7 599.572 779C601.772 777.2 603.872 775.2 604.372 774.4C604.772 773.6 604.672 771.9 604.072 770.5C603.572 769.1 601.372 766.3 599.372 764.3C597.271 762.3 593.071 759.5 590.07 758.1ZM752.09 757.2C747.389 755.6 743.389 755 737.588 755.1C732.587 755.1 727.187 756 723.086 757.2C717.986 758.8 715.585 760.3 711.585 764.4C707.784 768.3 705.984 771.1 704.284 776.2C702.284 782.5 702.084 784.7 702.084 808.7C702.084 831.3 702.384 835.3 704.084 841C705.284 845.2 707.284 849 709.785 851.9C712.085 854.5 716.085 857.5 720.086 859.4C726.187 862.3 727.187 862.5 738.088 862.5C748.489 862.5 750.089 862.3 755.09 859.8C758.09 858.4 762.691 855 765.191 852.3C768.392 849 770.292 845.8 771.492 842C772.792 837.5 773.092 831.7 773.092 809C773.092 786.4 772.792 780.5 771.492 776C770.192 771.7 768.592 769.2 764.191 765C759.891 760.7 757.09 758.9 752.09 757.2ZM723.186 783C723.186 782.2 724.186 780.2 725.387 778.7C726.587 777.2 729.387 775.3 731.587 774.5C733.988 773.6 737.288 773.2 739.888 773.5C742.189 773.8 744.989 774.4 746.089 775C747.189 775.5 748.989 777.5 750.089 779.2C751.99 782.3 752.09 784.3 752.09 808.7C752.09 830.1 751.79 835.6 750.59 838C749.789 839.6 747.789 841.7 746.089 842.5C744.489 843.3 740.588 844 737.588 844C734.588 844 730.887 843.4 729.387 842.6C727.787 841.9 726.087 840.2 725.387 838.9C724.786 837.6 723.986 835.7 723.686 834.7C723.386 833.8 723.086 822.1 723.086 808.7C723.186 795.4 723.186 783.8 723.186 783ZM806.096 757C805.296 756.5 801.396 756 797.495 756C791.895 756 789.994 756.4 788.494 757.9C786.694 759.7 786.694 761.6 787.094 799.7C787.394 826.9 787.994 840.1 788.694 841.1C789.294 841.9 790.094 843.6 790.394 845C790.694 846.4 792.695 849.5 794.795 851.9C797.095 854.5 801.096 857.5 805.096 859.4C811.197 862.3 812.197 862.5 823.098 862.5C832.899 862.5 835.3 862.1 839.6 860.2C842.401 858.9 846.601 856 849.001 853.7C851.402 851.4 854.402 847.2 855.702 844.5L858.102 839.5C858.102 759 858.102 758 856.102 757C855.002 756.4 851.202 756 847.601 756C842.401 756 840.7 756.4 839.1 758C837.2 759.9 837.1 761.3 837.1 798.2C837.1 830.7 836.9 836.8 835.6 838.7C834.8 840 832.799 841.7 831.099 842.5C829.499 843.3 825.498 844 822.398 844C818.498 844 815.797 843.4 814.097 842.3C812.697 841.4 810.897 839.9 810.097 839.1C808.797 837.9 808.496 831.4 808.096 797.8C807.696 763.8 807.396 757.8 806.096 757ZM924.61 760L917.709 756.5C878.905 755.9 876.205 756 874.704 757.5C873.104 759 873.004 763 873.004 808.6C873.104 839.4 873.504 858.8 874.104 860C875.004 861.8 876.105 862 883.605 862C891.406 862 892.206 861.8 893.207 859.7C893.94 858.233 894.207 851.3 894.007 838.9L893.607 820.2C912.709 819.4 917.209 818.7 921.61 817C925.91 815.4 929.111 813.2 933.111 809.1C937.312 804.9 939.012 802.2 940.112 798.5C940.812 795.7 941.512 791 941.512 788C941.512 785 940.912 780.5 940.212 778C939.612 775.5 937.312 771.2 935.312 768.5C932.511 764.8 929.811 762.6 924.61 760ZM915.109 799.5C913.109 800.5 909.108 801 894.107 801V775H903.108C908.208 775 913.209 775.5 914.709 776.2C916.209 776.9 918.21 779.2 919.21 781.2C920.31 783.3 921.11 786.6 921.11 788.5C921.11 790.4 920.41 793.3 919.61 795C918.81 796.6 916.809 798.7 915.109 799.5ZM647.177 503C646.477 501.7 642.277 501.5 620.374 501.2C596.571 501 594.271 501.1 592.771 502.7C591.871 503.7 590.47 507.6 589.57 511.5C588.67 515.3 587.07 521.6 585.97 525.5C584.97 529.3 583.47 535.4 582.669 539C582.004 541.993 578.712 555.079 574.919 570.153C574.415 572.155 573.903 574.193 573.386 576.247L572.568 579.5C567.768 598.2 562.967 617.3 561.967 622C560.867 626.7 559.167 633.2 558.167 636.5C557.066 639.8 555.866 644.5 555.566 647C555.166 649.5 553.766 654.9 552.566 659C551.266 663.1 549.866 668.7 549.466 671.5C549.066 674.2 547.765 679.6 546.465 683.5C545.165 687.3 544.065 691.4 544.065 692.5C544.065 693.6 543.365 697.2 542.565 700.5C541.765 703.8 540.064 709.4 538.964 713C537.264 718.1 537.064 720 537.964 721.7C538.564 723.1 540.664 724.5 542.865 725.1C545.065 725.7 552.666 726 561.367 725.8C575.869 725.5 576.269 725.4 578.369 723C579.569 721.6 581.369 717.1 582.269 713C582.965 710.149 583.854 705.991 584.634 702.345L584.636 702.334L584.637 702.331L584.641 702.313C584.979 700.728 585.298 699.24 585.57 698C586.47 693.9 587.77 688.1 588.57 685.2L590.07 680C646.677 680 649.177 680.1 649.978 681.7C650.378 682.7 651.378 686 651.978 689C652.678 692 654.378 699.2 655.778 705C657.178 710.8 658.579 717.1 658.979 719C659.479 721.7 660.379 722.9 663.079 724.2C665.979 725.7 669.28 726 681.881 726C690.182 726 698.183 725.5 699.583 725C700.984 724.5 702.284 723 702.584 721.7C702.884 720.5 702.084 715 700.684 709.5C700.103 707.22 699.179 703.565 698.096 699.283L698.096 699.282L698.084 699.237L698.07 699.181C696.546 693.155 694.713 685.904 693.083 679.5C690.282 668.5 687.782 659.3 687.582 659C687.382 658.7 686.282 654.7 685.182 650C684.182 645.3 681.481 634.5 679.181 626C678.26 622.441 677.303 618.794 676.459 615.573C675.286 611.102 674.329 607.453 673.98 606C673.38 603.5 671.58 596.5 669.98 590.5C668.48 584.5 665.879 574.3 664.179 568C663.749 566.307 663.218 564.223 662.632 561.926L662.548 561.596L662.499 561.403C660.928 555.245 659 547.688 657.578 542C655.478 534 652.478 522.3 650.878 516C649.277 509.7 647.577 503.8 647.177 503ZM615.573 565C615.873 563.1 616.774 558.4 617.674 554.5L619.374 547.5L620.074 551.5C620.474 553.7 622.074 561.1 623.574 568C625.075 574.9 627.675 586.6 629.375 594C630.975 601.4 632.675 607.7 633.076 608C633.476 608.3 633.876 610.1 633.876 612C633.976 613.9 634.976 619.3 636.076 624C637.176 628.7 638.376 633.2 638.676 634C638.976 634.8 639.476 637.4 640.076 644H599.071L599.372 641.7C599.471 640.5 599.872 639 600.272 638.5C600.672 638 601.472 634.1 602.172 630C602.772 625.9 604.072 619.3 605.072 615.5C606.072 611.6 607.372 605.3 608.073 601.5C608.673 597.6 610.073 591.3 611.073 587.5C612.073 583.6 613.373 577.8 613.973 574.5C614.573 571.2 615.273 566.9 615.573 565ZM824.498 503.5L815.497 501C725.087 501 722.186 501.1 720.486 502.8C718.686 504.6 718.686 509.3 718.786 613.1L718.986 721.5C723.186 725.4 724.786 725.5 762.891 725.8C786.094 726 806.296 725.7 811.497 725.1C816.497 724.5 823.198 723.3 826.499 722.5C829.799 721.6 834.4 720.1 836.8 719C839.1 717.9 843.401 715.4 846.301 713.4C849.201 711.4 853.902 707 856.902 703.7C859.803 700.3 863.503 694.8 865.203 691.5C866.803 688.2 869.104 682.8 870.204 679.5C871.604 675.3 872.404 669.7 872.804 661C873.304 649.5 873.104 647.9 870.704 639.8C869.204 635 867.604 631 867.003 631C866.503 631 865.803 629.7 865.503 628C865.303 626.4 864.003 623.8 862.803 622.4C862.242 621.796 861.495 620.95 860.691 620.039L860.69 620.038L860.689 620.037C859.629 618.837 858.469 617.523 857.502 616.5C855.902 614.7 852.302 611.7 849.501 609.8C846.801 607.9 843.701 606.1 842.801 605.7C841.3 605.1 842.2 603.9 847.701 598.3C851.302 594.6 854.902 590.8 855.602 590C856.202 589.2 858.402 585.4 860.303 581.5C862.203 577.7 864.303 571.8 865.003 568.5C865.703 564.9 866.003 559.3 865.603 554.5C865.303 550.1 864.403 543.9 863.503 540.8C862.703 537.6 861.003 532.9 859.703 530.3C858.402 527.7 854.402 522.6 850.802 519C847.301 515.4 841.9 511.1 838.9 509.3C836 507.6 829.499 505 824.498 503.5ZM763.291 586.8C762.291 585.8 761.991 579.6 761.791 562.4C761.791 549.7 762.091 539 762.591 538.6C763.091 538.2 773.392 538 785.494 538.2C803.796 538.5 807.996 538.9 810.497 540.3C812.197 541.2 814.897 543.2 816.697 544.7C818.398 546.3 820.498 549.4 821.398 551.8C822.498 554.7 822.898 558.3 822.698 563.3C822.498 567.3 821.498 572.3 820.598 574.5C819.598 576.7 817.197 580.1 815.197 582.1C812.897 584.3 809.797 586.1 806.796 586.8C803.996 587.5 794.395 588 783.293 588C769.492 588 764.191 587.7 763.291 586.8ZM762.491 686.5L762.391 657C762.291 640.8 762.391 626.9 762.691 626.2C763.091 625.1 767.692 624.9 810.497 625.5L815.497 628.7C818.298 630.4 821.498 633 822.798 634.4C823.998 635.9 825.699 638.9 826.599 641.3C827.499 643.6 828.399 649.3 828.699 654C829.099 660.1 828.799 664.2 827.699 668.5C826.399 673.1 824.898 675.7 821.298 679.6C817.298 683.9 815.597 684.9 810.997 685.9C807.396 686.7 798.295 687 762.491 686.5ZM671.98 758.4C668.38 757 663.379 756.6 645.877 756.2C624.975 755.9 624.074 755.9 622.074 757.9C620.074 760 619.974 760.7 619.974 809C619.974 839.7 620.374 858.8 620.974 860C621.874 861.8 622.974 862 630.975 862C638.976 862 640.076 861.8 640.977 860C641.577 858.9 641.977 850 641.977 840V822C653.178 822 654.178 822.3 655.378 824.3C656.078 825.5 657.478 828.8 658.579 831.5C659.579 834.3 660.679 836.7 661.079 837C661.479 837.3 662.079 838.6 662.479 840C662.879 841.4 664.979 846.3 667.18 851C669.38 855.7 671.88 860.1 672.78 860.8C673.88 861.6 677.781 862 683.282 862C690.582 862 692.183 861.7 692.883 860.3C693.583 859 692.083 854.9 687.382 845C683.882 837.6 679.882 828.801 678.381 825.501L678.381 825.5C676.881 822.2 675.781 818.8 675.981 818C676.081 817.2 677.881 814.7 679.881 812.5C681.881 810.3 684.482 806.9 685.682 805C686.882 803.1 688.582 798.6 689.482 795C690.682 790.6 690.982 786.8 690.582 783C690.182 780 688.682 775.1 687.182 772.1C685.682 769.1 682.681 765.2 680.481 763.4C678.281 761.6 674.481 759.3 671.98 758.4ZM663.979 801C662.279 802.7 660.679 803 641.977 803V775H651.478C657.078 775 662.079 775.5 663.579 776.3C664.979 777 666.98 779.3 668.08 781.5C669.08 783.7 669.98 786.6 669.98 788C669.98 789.4 669.08 792.4 667.98 794.8C666.88 797.1 665.079 799.9 663.979 801ZM138.816 276.1C139.417 276 140.217 276.7 140.517 277.5C140.817 278.3 141.017 315.8 141.017 360.7C141.017 406.7 140.617 447.1 140.017 453C139.517 458.8 137.916 468 136.616 473.5C135.216 479 132.516 487.5 130.515 492.5C128.515 497.4 125.515 504 123.815 507C122.114 510 118.414 515.9 115.714 520C112.913 524.1 106.513 531.7 101.612 536.8C96.5114 542 91.8108 546 91.0107 545.8C90.0106 545.6 88.7105 542.3 87.2103 536.5C86.0101 531.5 83.8099 521.4 82.4097 514C81.1096 506.6 79.2093 495.3 78.3092 489C76.9091 479.3 76.609 464.3 75.9089 309.5L104.712 294.1C120.514 285.6 134.416 278.1 135.516 277.4C136.616 276.7 138.116 276.1 138.716 276.1H138.816ZM147.417 511C148.018 511 149.318 514.5 150.318 518.7C151.318 523 152.118 527 152.118 527.5C152.118 528 154.318 535.2 157.019 543.5C159.719 551.7 164.019 563.5 166.62 569.5C169.22 575.5 171.92 581.7 172.72 583.2C174.121 585.9 173.921 586.2 167.02 593.7C163.119 598 156.519 604.6 152.318 608.5C148.018 612.3 140.117 618.7 134.616 622.7C126.615 628.6 124.415 629.8 123.415 628.8C122.815 628.1 119.514 622.1 116.214 615.5C112.913 608.9 108.113 598.3 105.612 592C103.012 585.7 100.012 578.1 97.1115 570L106.213 562.2C111.313 558 119.014 550.2 123.315 545C127.715 539.8 133.216 532.6 135.516 529C137.916 525.4 140.817 520.5 142.117 518C143.317 515.5 144.817 512.9 145.317 512.2C145.917 511.6 146.817 511 147.417 511ZM187.822 611.2C186.722 609.2 185.422 608 184.122 608C183.022 608 181.722 608.8 181.322 609.7C180.921 610.7 175.021 616.5 168.12 622.8C161.219 629 151.018 637.3 145.417 641.3C139.817 645.3 135.116 648.8 135.116 649.2C135.116 649.7 137.616 653.9 140.817 658.7C143.917 663.6 148.918 670.9 151.918 675C154.918 679.1 160.619 686.4 164.52 691.3C168.42 696.1 172.22 700.3 172.82 700.5C173.521 700.8 177.621 698.5 181.822 695.4C186.122 692.3 193.223 686.8 197.623 683.2C202.024 679.6 209.325 673.2 213.925 669.1C218.426 664.9 222.126 660.9 222.126 660.2C222.126 659.6 218.426 654.4 213.825 648.7C209.225 643.1 201.924 633.1 197.523 626.5C193.023 619.9 188.722 613 187.822 611.2ZM237.428 676.3L245.329 683.4C249.73 687.3 257.131 693.8 261.931 697.8C266.732 701.8 274.333 707.7 278.833 710.8C283.334 713.9 287.034 717.1 287.034 717.7C287.134 718.4 281.133 724.5 273.833 731.1C266.632 737.8 255.63 747.2 249.63 752.1C243.529 757 238.128 761 237.628 761C237.028 761 232.128 757.4 226.627 752.9C221.126 748.5 210.425 739.3 202.824 732.4C195.323 725.6 189.122 719.2 189.122 718.2C189.122 717.2 193.723 713 201.324 707.3C208.125 702.2 218.926 693.2 225.527 687.2L237.428 676.3ZM227.227 157.4C227.427 46.2 227.327 33.1 225.927 32.3C224.827 31.6 221.927 32.7 214.926 36.5C212.208 37.9633 207.114 40.7376 201.185 43.9664C195.769 46.9159 189.656 50.2447 184.022 53.3L162.519 64.9V250.5C175.793 257.752 186.586 263.599 195.378 268.363C199.438 270.563 203.071 272.531 206.325 274.3C221.927 282.7 225.327 284.2 226.127 283C226.627 282.1 227.127 228.3 227.227 157.4ZM183.522 286.4C173.121 280.7 163.92 276 163.22 276C162.119 276 162.019 293.4 162.319 372.3C162.619 438.3 163.12 471.2 163.92 477C164.52 481.7 166.02 490.5 167.12 496.5C168.22 502.6 170.52 512.7 172.121 519C173.821 525.3 176.621 535 178.521 540.5C180.422 546 183.122 553.6 184.722 557.4C186.222 561.2 187.923 564.5 188.523 564.7C189.123 564.9 191.823 561.1 194.723 556.3C197.524 551.4 201.724 543.8 203.924 539.3C206.225 534.7 209.225 528 210.625 524.3C212.125 520.5 214.526 513.5 216.126 508.5C217.726 503.6 220.426 493.1 222.027 485.3C223.727 477.4 225.327 467.5 225.627 463.3C226.027 459 226.427 423.6 226.727 384.5C226.927 345.5 226.927 312.6 226.627 311.5C226.327 310.2 222.127 307.3 214.326 303.1C207.825 299.6 193.923 292.1 183.522 286.4ZM238.128 516.5C238.629 516.8 239.729 519.4 240.629 522.3C241.529 525.1 243.629 530.7 245.329 534.5C246.93 538.4 249.53 544.2 251.03 547.5C252.53 550.8 256.331 558 259.531 563.5C262.731 569 267.432 576.7 270.132 580.5C272.833 584.4 275.033 588.1 275.033 588.8C275.033 589.4 272.733 593.9 269.932 598.8C267.032 603.6 262.531 610.9 259.731 615C256.931 619.1 251.03 627.1 246.63 632.7C242.129 638.4 238.028 643 237.528 643C236.928 643 233.528 639.3 229.928 634.8C226.327 630.2 220.426 622.2 216.826 617C213.226 611.8 208.025 603.7 205.225 599C202.424 594.3 200.124 589.8 200.124 589C200.124 588.2 202.724 583.7 205.925 579C209.125 574.3 214.126 566.3 216.926 561.3C219.726 556.2 224.227 547.2 226.827 541.3C229.527 535.3 232.528 528 233.528 525C234.528 522 235.728 518.7 236.228 517.7C236.728 516.7 237.628 516.2 238.128 516.5ZM300.636 617L290.335 607L287.534 611.7C285.934 614.4 281.234 621.7 276.933 628C272.633 634.3 265.532 644 261.131 649.5C256.731 655 253.03 659.7 253.03 660C253.03 660.3 256.731 664.1 261.231 668.5C265.832 672.9 274.033 680.1 279.533 684.5C285.034 689 292.235 694.4 295.535 696.7C298.836 699 302.036 700.5 302.536 700.2C303.136 699.8 305.837 696.8 308.637 693.5C311.437 690.2 316.838 683.2 320.738 678C324.539 672.8 330.44 664.3 333.84 659.3C337.24 654.2 340.041 649.7 340.041 649.3C340.041 648.8 337.94 647.2 335.24 645.5C332.64 643.9 326.139 639 320.738 634.8C315.438 630.5 306.337 622.5 300.636 617ZM311.337 147.1C313.037 147 313.037 154.2 312.737 308.8C312.437 453.1 312.237 471.7 310.737 481.5C309.837 487.6 308.137 497 307.036 502.5C305.936 508 303.836 516.8 302.436 522C301.036 527.2 298.135 536.5 296.035 542.5C294.532 546.793 292.773 551.599 291.565 554.901L291.562 554.908L291.559 554.917C291.081 556.222 290.69 557.292 290.435 558C289.434 560.5 288.234 563.1 287.634 563.8C287.034 564.5 286.234 565.1 285.734 565C285.334 565 283.034 561.5 280.633 557.3C278.612 553.522 275.974 548.818 274.413 546.035L274.412 546.033L274.071 545.425L273.833 545C272.432 542.5 269.132 535.5 266.532 529.5C263.931 523.5 260.531 514.5 259.031 509.5C257.431 504.6 255.23 496.7 254.03 492C252.93 487.3 251.23 479 250.33 473.5C248.83 464.6 248.63 447.9 248.329 323.3C248.129 236.4 248.43 182.3 248.93 181.3C249.53 180.3 263.331 172.2 279.733 163.3C296.135 154.4 310.337 147.1 311.337 147.1ZM328.339 511.3C329.039 511.5 331.739 515.5 334.34 520.1C337.04 524.7 341.141 531.2 343.541 534.5C345.841 537.8 350.642 543.7 354.142 547.6C357.643 551.5 364.443 558.3 377.945 570.5L376.045 575.5C375.552 576.879 374.817 578.817 374.042 580.858L374.04 580.862C373.243 582.964 372.403 585.175 371.744 587C370.344 590.6 366.644 599.1 363.543 606C360.343 612.9 356.442 620.9 354.942 623.8C353.342 626.6 351.342 629 350.542 629C349.742 629 344.841 625.9 339.74 622.2C334.74 618.4 326.939 612 322.538 607.9C318.138 603.8 311.537 597.2 301.036 586L304.136 579.3C305.836 575.5 308.337 569.8 309.737 566.5C311.037 563.2 313.437 556.9 315.037 552.5C316.538 548.1 319.238 540 320.838 534.5C322.538 529 324.339 522 325.039 519C325.639 516 326.439 512.9 326.739 512.2C326.939 511.4 327.739 511 328.339 511.3Z" fill="white"/>
</svg>
